# Blender v2.78 (sub 0) OBJ File: ''
# www.blender.org
mtllib budynek.mtl
o Cube
v 1.000000 -1.000000 -1.000000
v 1.000000 -1.000000 1.000000
v -1.000000 -1.000000 1.000000
v -1.000000 -1.000000 -1.000000
v 1.000000 4.799191 -0.999999
v 0.833944 4.852203 0.884870
v -1.000000 4.977860 1.000000
v -1.000000 4.907152 -1.000000
vt 1.0000 0.0000
vt 0.0000 1.0000
vt 0.0000 0.0000
vt 1.0000 0.0000
vt 0.0000 1.0000
vt 0.0000 0.0000
vt 1.0000 0.0000
vt 0.0000 1.0000
vt 1.0000 0.0000
vt 0.0000 1.0000
vt 0.0000 0.0000
vt 0.0000 0.0000
vt 1.0000 1.0000
vt 1.0000 1.0000
vt 0.0000 1.0000
vt 1.0000 1.0000
vt 1.0000 1.0000
vt 1.0000 1.0000
vt 1.0000 0.0000
vt 1.0000 0.0000
vn 0.0000 -1.0000 0.0000
vn 0.0539 0.9983 -0.0233
vn 1.0000 -0.0000 0.0000
vn -0.0000 0.0197 0.9998
vn -1.0000 -0.0000 -0.0000
vn 0.0000 0.0000 -1.0000
vn 0.0661 0.9972 -0.0353
vn 0.9958 0.0300 0.0869
vn 0.0627 0.0000 0.9980
usemtl Material
s off
f 2/1/1 4/2/1 1/3/1
f 8/4/2 6/5/2 5/6/2
f 5/7/3 2/8/3 1/3/3
f 6/9/4 3/10/4 2/11/4
f 3/12/5 8/13/5 4/2/5
f 5/6/6 4/14/6 8/15/6
f 2/1/1 3/16/1 4/2/1
f 8/4/7 7/17/7 6/5/7
f 5/7/8 6/18/8 2/8/8
f 6/9/9 7/17/9 3/10/9
f 3/12/5 7/19/5 8/13/5
f 5/6/6 1/20/6 4/14/6
